HIERARCHY
ROOT Hips
{
 OFFSET 0.000000 0.000000 0.000000
 CHANNELS 6 Xposition Yposition Zposition Yrotation Xrotation Zrotation
 JOINT Chest
 {
  OFFSET 0.000000 9.585900 0.002600
  CHANNELS 3 Yrotation Xrotation Zrotation
  JOINT Chest2
  {
   OFFSET 0.000000 9.601200 -0.005300
   CHANNELS 3 Yrotation Xrotation Zrotation
   JOINT Chest3
   {
    OFFSET 0.000000 9.561800 0.000000
    CHANNELS 3 Yrotation Xrotation Zrotation
    JOINT Chest4
    {
     OFFSET 0.000000 9.552100 0.000000
     CHANNELS 3 Yrotation Xrotation Zrotation
     JOINT Neck
     {
      OFFSET 0.000000 14.453000 0.000000
      CHANNELS 3 Yrotation Xrotation Zrotation
      JOINT Head
      {
       OFFSET 0.000000 8.936500 -0.011300
       CHANNELS 3 Yrotation Xrotation Zrotation
       End Site
       {
        OFFSET 0.000000 17.073600 -0.006000
       }
      }
     }
     JOINT RightCollar
     {
      OFFSET -2.921100 9.558500 0.000000
      CHANNELS 3 Yrotation Xrotation Zrotation
      JOINT RightShoulder
      {
       OFFSET -13.519700 0.000000 0.000000
       CHANNELS 3 Yrotation Xrotation Zrotation
       JOINT RightElbow
       {
        OFFSET 0.000000 -29.696600 0.000000
        CHANNELS 3 Yrotation Xrotation Zrotation
        JOINT RightWrist
        {
         OFFSET 0.000000 -24.004700 0.000000
         CHANNELS 3 Yrotation Xrotation Zrotation
         End Site
         {
          OFFSET 0.000000 -17.728500 0.000000
         }
        }
       }
      }
     }
     JOINT LeftCollar
     {
      OFFSET 2.921100 9.558500 0.000000
      CHANNELS 3 Yrotation Xrotation Zrotation
      JOINT LeftShoulder
      {
       OFFSET 13.519700 0.000000 0.000000
       CHANNELS 3 Yrotation Xrotation Zrotation
       JOINT LeftElbow
       {
        OFFSET 0.000000 -29.696600 0.000000
        CHANNELS 3 Yrotation Xrotation Zrotation
        JOINT LeftWrist
        {
         OFFSET 0.000000 -24.004700 0.000000
         CHANNELS 3 Yrotation Xrotation Zrotation
         End Site
         {
          OFFSET 0.000000 -17.728500 0.000000
         }
        }
       }
      }
     }
    }
   }
  }
 }
 JOINT RightHip
 {
  OFFSET -7.771700 -0.012900 -0.001300
  CHANNELS 3 Yrotation Xrotation Zrotation
  JOINT RightKnee
  {
   OFFSET 0.000000 -40.869800 0.001200
   CHANNELS 3 Yrotation Xrotation Zrotation
   JOINT RightAnkle
   {
    OFFSET 0.000000 -39.717900 0.002100
    CHANNELS 3 Yrotation Xrotation Zrotation
    JOINT RightToe
    {
     OFFSET 0.000000 -4.965400 11.033500
     CHANNELS 3 Yrotation Xrotation Zrotation
     End Site
     {
      OFFSET 0.000000 -1.423100 5.872300
     }
    }
   }
  }
 }
 JOINT LeftHip
 {
  OFFSET 7.771700 -0.012900 -0.001300
  CHANNELS 3 Yrotation Xrotation Zrotation
  JOINT LeftKnee
  {
   OFFSET 0.000000 -40.869800 0.001200
   CHANNELS 3 Yrotation Xrotation Zrotation
   JOINT LeftAnkle
   {
    OFFSET 0.000000 -39.717900 0.002100
    CHANNELS 3 Yrotation Xrotation Zrotation
    JOINT LeftToe
    {
     OFFSET 0.000000 -4.965400 11.033500
     CHANNELS 3 Yrotation Xrotation Zrotation
     End Site
     {
      OFFSET 0.000000 -1.423100 5.872300
     }
    }
   }
  }
 }
}
MOTION
Frames: 13
Frame Time: 0.008333
-107.555554 51.767064 -41.771364 177.914961 -22.328318 1.033207 -4.128001 12.885498 -0.001182 -0.341874 1.063893 0.082312 -0.579266 1.805552 0.135893 -3.711130 11.680815 0.560856 -6.535523 22.841521 -2.766206 -6.436025 -1.019053 -1.538941 6.212423 15.266735 10.703201 11.289956 -11.826444 -45.374776 152.730588 -48.193869 157.804678 -4.592478 2.760086 -17.652406 -2.541534 15.969215 -15.521230 -22.759586 -1.381018 30.868182 -149.476572 -57.027246 -169.955752 14.765646 9.699846 -0.607975 -15.208386 -60.826557 6.026868 -83.457525 79.991313 -91.343732 -3.556163 -11.234162 5.564257 0.321552 -0.883011 0.170435 13.055365 -57.850529 -11.717165 19.430608 83.095964 25.314417 -2.647746 -9.046571 0.398218 0.104104 0.436641 0.050221
-107.554495 51.760615 -41.775728 177.921997 -22.284083 1.038467 -4.109440 12.877064 0.008542 -0.352495 1.047072 0.078716 -0.579251 1.802838 0.135919 -3.713690 11.671872 0.561453 -6.480159 22.823803 -2.768388 -6.443150 -1.032124 -1.530680 6.225432 15.278128 10.719611 11.312935 -11.815991 -45.340055 152.693885 -48.158214 157.865930 -4.576807 2.798912 -17.581749 -2.535881 15.956593 -15.518222 -22.760723 -1.388961 30.896208 -149.451617 -57.007308 -169.964870 14.721122 9.620852 -0.625358 -15.217604 -60.872303 6.032425 -83.496963 79.990413 -91.382253 -3.548213 -11.245099 5.562073 0.316422 -0.855901 0.166217 13.077694 -57.895114 -11.748704 19.445740 83.103604 25.327784 -2.650133 -9.054150 0.398874 0.104632 0.441381 0.050108
-107.552606 51.756040 -41.783654 177.942242 -22.267911 1.033245 -4.124557 12.865478 0.009302 -0.341767 1.061054 0.082519 -0.567839 1.814896 0.141025 -3.713297 11.658615 0.569667 -6.474033 22.794893 -2.771242 -6.419789 -1.055742 -1.534223 6.220713 15.277872 10.721972 11.326649 -11.807229 -45.313820 152.686483 -48.126750 157.902922 -4.558231 2.838808 -17.510216 -2.550415 15.929549 -15.519648 -22.764615 -1.395485 30.917925 -149.348620 -56.947140 -170.030282 14.747249 9.650020 -0.635270 -15.225838 -60.889361 6.032084 -83.607873 79.990144 -91.491009 -3.557641 -11.266900 5.570263 0.314887 -0.833494 0.159969 13.063435 -57.916787 -11.756104 19.441151 83.119659 25.322740 -2.645760 -9.058111 0.395389 0.107801 0.438192 0.050663
-107.550206 51.751043 -41.789450 177.972743 -22.243203 1.018999 -4.141017 12.858667 0.020510 -0.332887 1.070889 0.085931 -0.576218 1.801054 0.139107 -3.711202 11.654023 0.574834 -6.453573 22.773301 -2.768289 -6.397108 -1.082985 -1.535298 6.229512 15.286834 10.728894 11.324905 -11.813134 -45.307701 152.725965 -48.104440 157.905578 -4.538042 2.869657 -17.458097 -2.540240 15.906447 -15.511397 -22.784673 -1.396518 30.934608 -149.286462 -56.910535 -170.067305 14.753709 9.651444 -0.638875 -15.258103 -60.914790 6.057779 -83.734207 79.986498 -91.618902 -3.586306 -11.284056 5.578118 0.321976 -0.819365 0.160208 13.028734 -57.950013 -11.750544 19.479716 83.129286 25.355472 -2.650919 -9.061267 0.393156 0.112012 0.437746 0.051545
-107.551453 51.747974 -41.798776 178.008745 -22.245870 1.022936 -4.160360 12.891278 0.015634 -0.347800 1.042787 0.077907 -0.570591 1.811242 0.143890 -3.708953 11.650656 0.580093 -6.450011 22.755941 -2.770164 -6.361673 -1.120271 -1.535797 6.233218 15.290970 10.731140 11.348835 -11.791418 -45.270196 152.684736 -48.068924 157.955435 -4.537333 2.903662 -17.386619 -2.541228 15.887393 -15.510899 -22.796264 -1.403078 30.959628 -149.252267 -56.882727 -170.082558 14.749028 9.642968 -0.640969 -15.257768 -60.917679 6.023460 -83.825437 79.997078 -91.713363 -3.619964 -11.266165 5.574365 0.352297 -0.841360 0.170819 13.014615 -57.947574 -11.776744 19.540659 83.137492 25.413979 -2.672335 -9.081210 0.386960 0.134389 0.452243 0.059199
-107.552658 51.744288 -41.805478 178.026835 -22.236686 1.029844 -4.173409 12.895802 0.008679 -0.346794 1.043659 0.079324 -0.570993 1.808332 0.143536 -3.707345 11.646821 0.584809 -6.445703 22.740081 -2.771393 -6.327620 -1.160945 -1.537489 6.240055 15.298355 10.731808 11.365343 -11.777801 -45.239707 152.620805 -48.043897 158.005613 -4.573156 2.944459 -17.285219 -2.546296 15.873536 -15.514313 -22.805689 -1.415244 30.987942 -149.221107 -56.853123 -170.097192 14.744157 9.640571 -0.645860 -15.252619 -60.930294 6.002648 -83.923994 80.008077 -91.818782 -3.619416 -11.298795 5.575078 0.336199 -0.821926 0.173539 13.016071 -57.956534 -11.801677 19.586947 83.143065 25.456321 -2.677154 -9.082515 0.386766 0.133865 0.450568 0.059494
-107.552898 51.740128 -41.809960 178.038056 -22.218809 1.029424 -4.176833 12.891986 0.013225 -0.348608 1.042473 0.078299 -0.568946 1.807400 0.145535 -3.707685 11.642481 0.589130 -6.426531 22.715163 -2.769501 -6.306597 -1.192224 -1.541782 6.251215 15.309331 10.730195 11.357392 -11.791379 -45.236229 152.691840 -48.021879 157.982986 -4.573247 2.977418 -17.192553 -2.551888 15.860977 -15.518614 -22.817059 -1.452838 31.052547 -149.233090 -56.860152 -170.077582 14.743469 9.639383 -0.651903 -15.248111 -60.949252 6.000312 -83.980269 80.000518 -91.875832 -3.621722 -11.312551 5.582978 0.341059 -0.813805 0.171280 13.011261 -57.977211 -11.812425 19.642418 83.148786 25.507252 -2.677240 -9.085593 0.388697 0.132895 0.451243 0.058087
-107.553111 51.736687 -41.815139 178.040722 -22.211107 1.028026 -4.175171 12.891417 0.018131 -0.343690 1.049701 0.081043 -0.572382 1.802065 0.145378 -3.708051 11.641479 0.594755 -6.404495 22.689780 -2.770469 -6.300415 -1.210547 -1.544440 6.265904 15.320397 10.725684 11.393595 -11.765598 -45.171532 152.704278 -47.956423 158.031300 -4.534705 2.998213 -17.116591 -2.549810 15.837036 -15.527830 -22.827903 -1.451442 31.086051 -149.211429 -56.830157 -170.088799 14.746123 9.636009 -0.656846 -15.219244 -60.960305 5.988347 -84.050670 79.987270 -91.940309 -3.626805 -11.312553 5.592842 0.346713 -0.819188 0.170392 13.002867 -57.989522 -11.813041 19.730235 83.157107 25.594840 -2.680688 -9.089353 0.383279 0.133559 0.450620 0.060106
-107.554681 51.732598 -41.817616 178.050960 -22.191913 1.026861 -4.181466 12.878582 0.020942 -0.334328 1.067670 0.089235 -0.583577 1.780192 0.136168 -3.705554 11.646901 0.602620 -6.385779 22.665182 -2.771288 -6.313114 -1.205918 -1.545395 6.281755 15.329189 10.721183 11.414194 -11.749450 -45.124385 152.713074 -47.907184 158.066041 -4.532730 3.012416 -17.014115 -2.555435 15.822632 -15.535736 -22.834097 -1.460346 31.121835 -149.191671 -56.798299 -170.098029 14.759360 9.666848 -0.646791 -15.212795 -60.980473 5.982973 -84.072528 79.980425 -91.963112 -3.617233 -11.313348 5.597266 0.338635 -0.819862 0.167208 12.996437 -58.012381 -11.824929 19.748118 83.162775 25.610996 -2.674950 -9.089407 0.381580 0.132792 0.450438 0.059920
-107.556826 51.728386 -41.818608 178.058661 -22.169216 1.025302 -4.181666 12.868100 0.026177 -0.333946 1.066716 0.090683 -0.584907 1.779858 0.136007 -3.708274 11.642020 0.605583 -6.371470 22.646159 -2.772613 -6.296367 -1.231715 -1.552216 6.294742 15.336157 10.720666 11.428475 -11.734700 -45.092878 152.703332 -47.873451 158.091726 -4.565516 3.017898 -16.887105 -2.558676 15.809642 -15.538085 -22.843427 -1.469881 31.155674 -149.186300 -56.783710 -170.092455 14.765234 9.681855 -0.641637 -15.204561 -61.002050 5.977523 -84.067487 79.973068 -91.954694 -3.612098 -11.315121 5.603105 0.334162 -0.814072 0.163719 12.992002 -58.038647 -11.835544 19.758618 83.166493 25.619839 -2.675576 -9.089406 0.382945 0.136441 0.451641 0.057702
-107.557064 51.723829 -41.817495 178.038489 -22.139036 1.018108 -4.151360 12.851679 0.050760 -0.334314 1.064657 0.088964 -0.584970 1.780730 0.138588 -3.710094 11.637539 0.607123 -6.344911 22.617406 -2.772696 -6.296726 -1.243572 -1.554288 6.297387 15.338142 10.719150 11.442714 -11.716272 -45.064652 152.658299 -47.847927 158.127718 -4.626251 3.017602 -16.746758 -2.565268 15.798884 -15.541435 -22.856254 -1.481108 31.191895 -149.165941 -56.752233 -170.097403 14.773081 9.677761 -0.650762 -15.197860 -61.026561 6.001723 -84.068740 79.968802 -91.945527 -3.584256 -11.357247 5.611069 0.304113 -0.769153 0.148129 12.991420 -58.074253 -11.818638 19.786869 83.168849 25.644670 -2.658947 -9.078493 0.386978 0.120636 0.440275 0.051561
-107.561212 51.720839 -41.818769 178.047795 -22.130092 1.019679 -4.153660 12.852913 0.051677 -0.334690 1.063456 0.086963 -0.584585 1.780419 0.141034 -3.708702 11.636896 0.613329 -6.340731 22.597516 -2.777967 -6.270466 -1.291529 -1.566162 6.289086 15.333071 10.711992 11.449709 -11.706524 -45.050786 152.783100 -47.816839 158.085797 -4.588342 2.988112 -16.655883 -2.576562 15.786185 -15.546754 -22.865365 -1.488373 31.218196 -149.127634 -56.695082 -170.126969 14.776766 9.687178 -0.659112 -15.173674 -61.038135 5.975053 -84.079618 79.957339 -91.953720 -3.565866 -11.349007 5.614740 0.293793 -0.774474 0.150314 12.987126 -58.084202 -11.830416 19.818268 83.168805 25.671890 -2.661620 -9.080215 0.387341 0.124188 0.442664 0.052686
-107.564452 51.717982 -41.818834 178.061209 -22.119253 1.010558 -4.154828 12.856460 0.059539 -0.340996 1.053883 0.086791 -0.581958 1.784297 0.143079 -3.707788 11.634123 0.619152 -6.334801 22.581450 -2.781732 -6.278675 -1.289462 -1.565384 6.290544 15.340050 10.716609 11.451934 -11.706599 -45.047813 152.841373 -47.797383 158.082566 -4.576627 2.967148 -16.561372 -2.589630 15.767143 -15.542035 -22.860876 -1.485684 31.212939 -149.091532 -56.639413 -170.167793 14.762698 9.627675 -0.706810 -15.178210 -61.049867 5.974425 -84.084768 79.940963 -91.958007 -3.539734 -11.330500 5.610357 0.282538 -0.788691 0.157629 12.969487 -58.098184 -11.828802 19.812488 83.168861 25.666122 -2.665591 -9.084788 0.385709 0.132044 0.449349 0.054608
